# Blender v2.79 (sub 0) OBJ File: ''
# www.blender.org
o Cube
v 1.000000 -0.393010 -0.786021
v 0.786021 -0.500000 -0.786021
v 0.786021 -0.393010 -1.000000
v 1.000000 -0.393010 0.786021
v 0.786021 -0.393010 1.000000
v 0.786021 -0.500000 0.786021
v -0.786021 -0.393010 1.000000
v -1.000000 -0.393010 0.786021
v -0.786021 -0.500000 0.786021
v -0.786021 -0.393010 -1.000000
v -0.786021 -0.500000 -0.786021
v -1.000000 -0.393010 -0.786021
v 0.786021 0.393010 -1.000000
v 0.786021 0.500000 -0.786020
v 1.000000 0.393010 -0.786020
v 0.786020 0.393010 1.000000
v 1.000000 0.393010 0.786021
v 0.786020 0.500000 0.786021
v -1.000000 0.393010 0.786021
v -0.786021 0.393010 1.000000
v -0.786021 0.500000 0.786021
v -1.000000 0.393010 -0.786021
v -0.786021 0.500000 -0.786021
v -0.786021 0.393010 -1.000000
v 0.901979 -0.395527 -0.901979
v 0.901979 -0.450990 -0.791055
v 0.791055 -0.450990 -0.901979
v 0.901979 -0.450990 0.791055
v 0.901979 -0.395527 0.901979
v 0.791055 -0.450990 0.901979
v -0.791055 -0.450990 0.901979
v -0.901979 -0.395527 0.901979
v -0.901979 -0.450990 0.791054
v -0.901979 -0.395527 -0.901980
v -0.791054 -0.450990 -0.901980
v -0.901979 -0.450990 -0.791055
v 0.901980 0.395527 -0.901979
v 0.791055 0.450990 -0.901979
v 0.901980 0.450990 -0.791054
v 0.791054 0.450990 0.901980
v 0.901979 0.395527 0.901980
v 0.901979 0.450990 0.791055
v -0.901980 0.450990 0.791054
v -0.901980 0.395527 0.901979
v -0.791055 0.450990 0.901979
v -0.901979 0.395527 -0.901979
v -0.901979 0.450990 -0.791055
v -0.791055 0.450990 -0.901979
v 1.059312 -0.404579 0.000000
v 0.809159 -0.529656 0.000000
v 0.000000 -0.529656 -0.809159
v 0.000000 -0.404579 -1.059312
v 0.809159 0.000000 -1.059312
v 1.059312 -0.000000 -0.809158
v -0.000000 -0.404579 1.059312
v -0.000000 -0.529656 0.809158
v 1.059311 0.000000 0.809159
v 0.809158 0.000000 1.059312
v -1.059312 -0.404579 -0.000000
v -0.809158 -0.529656 -0.000000
v -0.809159 0.000000 1.059312
v -1.059312 0.000000 0.809158
v -1.059312 -0.000000 -0.809159
v -0.809158 0.000000 -1.059312
v 0.809158 0.529656 0.000000
v 1.059312 0.404579 0.000001
v 0.000000 0.404579 -1.059312
v 0.000000 0.529656 -0.809158
v -0.000000 0.529656 0.809159
v -0.000001 0.404579 1.059312
v -0.809159 0.529656 -0.000000
v -1.059312 0.404579 -0.000000
v 1.129342 0.000000 0.000000
v -0.946302 0.473151 -0.000000
v -0.000000 0.473151 0.946302
v 0.000000 0.473151 -0.946301
v 0.946302 0.473151 0.000001
v -0.946301 0.000000 -0.946302
v -0.946302 0.000000 0.946301
v -0.946301 -0.473151 -0.000000
v 0.946301 0.000000 0.946302
v -0.000000 -0.473151 0.946302
v 0.946302 0.000000 -0.946301
v 0.000000 -0.473151 -0.946302
v 0.946302 -0.473151 0.000000
v -0.000000 0.000000 1.129342
v -0.000000 0.564671 0.000000
v -1.129342 0.000000 -0.000000
v 0.000000 -0.564671 -0.000000
v 0.000000 0.000000 -1.129342
vt 0.154980 0.502424
vt 0.010135 0.352769
vt 0.153580 0.343623
vt 0.469245 0.166733
vt 0.614090 0.017078
vt 0.616848 0.171583
vt 0.779204 0.166733
vt 0.928025 0.320496
vt 0.782756 0.327758
vt 0.154980 0.166733
vt 0.303801 0.320496
vt 0.158532 0.327758
vt 0.467092 0.502424
vt 0.611103 0.345507
vt 0.616848 0.499798
vt 0.992544 0.295362
vt 0.967778 0.281340
vt 0.992544 0.265263
vt 0.991439 0.067933
vt 0.967269 0.052926
vt 0.992624 0.037946
vt 0.991489 0.159608
vt 0.992544 0.189453
vt 0.967231 0.174456
vt 0.992544 0.143743
vt 0.967778 0.129720
vt 0.992544 0.113643
vt 0.943713 0.567587
vt 0.967778 0.552680
vt 0.967231 0.583754
vt 0.992544 0.462848
vt 0.992544 0.492947
vt 0.967778 0.476870
vt 0.991489 0.311228
vt 0.992544 0.341072
vt 0.967231 0.326075
vt 0.943713 0.415968
vt 0.967778 0.401060
vt 0.967231 0.432135
vt 0.434672 0.992067
vt 0.405864 0.834066
vt 0.438629 0.834752
vt 0.836531 0.834752
vt 0.862736 0.679693
vt 0.869296 0.834066
vt 0.119254 0.834752
vt 0.095633 0.992067
vt 0.087074 0.835949
vt 0.681093 0.992067
vt 0.644957 0.835949
vt 0.677136 0.834752
vt 0.916814 0.834752
vt 0.946162 0.681304
vt 0.948994 0.835949
vt 0.760791 0.992067
vt 0.724654 0.835949
vt 0.756834 0.834752
vt 0.358931 0.834752
vt 0.388280 0.681304
vt 0.391111 0.835949
vt 0.598024 0.834752
vt 0.566091 0.990457
vt 0.565259 0.834066
vt 0.040141 0.834752
vt 0.008209 0.990457
vt 0.007377 0.834066
vt 0.202908 0.992067
vt 0.166772 0.835949
vt 0.198951 0.834752
vt 0.279234 0.834752
vt 0.308582 0.681304
vt 0.311414 0.835949
vt 0.517741 0.834752
vt 0.543946 0.679693
vt 0.550506 0.834066
vt 0.781357 0.502423
vt 0.632536 0.656186
vt 0.631601 0.499798
vt 0.637346 0.345507
vt 0.782756 0.343623
vt 0.926202 0.352768
vt 0.921392 0.663448
vt 0.928960 0.507273
vt 0.549674 0.990457
vt 0.521698 0.992067
vt 0.485562 0.835949
vt 0.494121 0.992067
vt 0.515934 0.679314
vt 0.302854 0.992067
vt 0.275277 0.992067
vt 0.246469 0.834066
vt 0.247301 0.990457
vt 0.281041 0.679314
vt 0.197144 0.679314
vt 0.169603 0.681304
vt 0.225156 0.679693
vt 0.230884 0.990457
vt 0.231716 0.834066
vt 0.013937 0.679693
vt 0.041949 0.679314
vt 0.072321 0.835949
vt 0.069490 0.681304
vt 0.036184 0.992067
vt 0.571819 0.679693
vt 0.599832 0.679314
vt 0.627372 0.681304
vt 0.621644 0.992067
vt 0.630204 0.835949
vt 0.382552 0.992067
vt 0.354975 0.992067
vt 0.326999 0.990457
vt 0.332727 0.679693
vt 0.326167 0.834066
vt 0.755026 0.679314
vt 0.727485 0.681304
vt 0.783038 0.679693
vt 0.788766 0.990457
vt 0.789599 0.834066
vt 0.940434 0.992067
vt 0.912857 0.992067
vt 0.884881 0.990457
vt 0.890609 0.679693
vt 0.884049 0.834066
vt 0.675329 0.679314
vt 0.647788 0.681304
vt 0.703341 0.679693
vt 0.709069 0.990457
vt 0.709901 0.834066
vt 0.089905 0.681304
vt 0.117446 0.679314
vt 0.145458 0.679693
vt 0.151186 0.990457
vt 0.152019 0.834066
vt 0.868464 0.990457
vt 0.840488 0.992067
vt 0.804352 0.835949
vt 0.812911 0.992067
vt 0.834724 0.679314
vt 0.440437 0.679314
vt 0.412424 0.679693
vt 0.467977 0.681304
vt 0.462249 0.992067
vt 0.470809 0.835949
vt 0.992544 0.417138
vt 0.991489 0.446982
vt 0.992544 0.387038
vt 0.967778 0.357150
vt 0.943713 0.342242
vt 0.992544 0.371172
vt 0.967231 0.507944
vt 0.943713 0.491778
vt 0.991489 0.522792
vt 0.992544 0.568757
vt 0.991489 0.598602
vt 0.992544 0.538657
vt 0.967231 0.098646
vt 0.991489 0.083798
vt 0.943713 0.114813
vt 0.967778 0.205530
vt 0.943713 0.190623
vt 0.992544 0.219553
vt 0.967883 0.021823
vt 0.992624 0.007933
vt 0.943713 0.036829
vt 0.967231 0.250266
vt 0.991489 0.235418
vt 0.943713 0.266432
vt 0.615913 0.656187
vt 0.470644 0.663448
vt 0.327057 0.663448
vt 0.322247 0.352769
vt 0.319489 0.507273
vt 0.014945 0.327758
vt 0.007377 0.171583
vt 0.010135 0.017078
vt 0.298991 0.009817
vt 0.153580 0.007933
vt 0.639169 0.327758
vt 0.631601 0.171583
vt 0.634359 0.017078
vt 0.923215 0.009817
vt 0.777805 0.007933
vt 0.609280 0.327758
vt 0.465693 0.327758
vt 0.320424 0.320496
vt 0.325233 0.009817
vt 0.319489 0.164108
vt 0.298991 0.345507
vt 0.304736 0.499798
vt 0.303801 0.656187
vt 0.014945 0.663448
vt 0.158532 0.663448
vt 0.007377 0.507273
vt 0.470644 0.007933
vt 0.928960 0.164108
vt 0.304736 0.164108
vt 0.465693 0.343623
vt 0.406696 0.990457
vt 0.123211 0.992067
vt 0.653516 0.992067
vt 0.918622 0.679314
vt 0.733214 0.992067
vt 0.360739 0.679314
vt 0.594067 0.992067
vt 0.175331 0.992067
vt 0.777805 0.663448
vt 0.488393 0.681304
vt 0.253029 0.679693
vt 0.063762 0.992067
vt 0.807183 0.681304
vn -0.0852 -0.1536 -0.9845
vn -0.0432 -0.9983 0.0389
vn -0.9845 0.1536 -0.0852
vn -0.0389 0.9983 0.0432
vn -0.0852 0.1536 0.9845
vn 0.4833 -0.7830 -0.3915
vn 0.4833 -0.7830 0.3915
vn -0.3915 -0.7830 0.4833
vn -0.3915 -0.7830 -0.4833
vn 0.3915 0.7830 -0.4833
vn 0.3915 0.7830 0.4833
vn -0.4833 0.7830 0.3915
vn -0.4833 0.7830 -0.3915
vn 0.3805 -0.9236 0.0472
vn -0.0517 -0.8538 -0.5181
vn 0.7628 0.1521 -0.6285
vn -0.0472 -0.9236 0.3805
vn 0.6285 0.1521 0.7628
vn -0.3805 -0.9236 -0.0472
vn -0.7628 0.1521 0.6285
vn -0.6285 0.1521 -0.7628
vn 0.5181 0.8538 0.0517
vn -0.0472 0.9236 -0.3805
vn -0.0517 0.8538 0.5181
vn -0.5181 0.8538 -0.0517
vn 0.9845 0.1536 0.0852
vn 0.9824 -0.1701 0.0766
vn 0.9824 -0.1701 -0.0766
vn 0.9845 0.1536 -0.0852
vn -0.5104 0.8583 0.0526
vn -0.3872 0.9208 0.0461
vn -0.3805 0.9236 -0.0472
vn 0.0526 0.8583 0.5104
vn 0.0461 0.9208 0.3872
vn -0.0472 0.9236 0.3805
vn 0.0461 0.9208 -0.3872
vn 0.0526 0.8583 -0.5104
vn -0.0517 0.8538 -0.5181
vn 0.5104 0.8583 -0.0526
vn 0.3872 0.9208 -0.0461
vn 0.3805 0.9236 0.0472
vn -0.6357 -0.1560 -0.7560
vn -0.7560 -0.1560 -0.6357
vn -0.7628 0.1521 -0.6285
vn -0.7560 -0.1560 0.6357
vn -0.6357 -0.1560 0.7560
vn -0.6285 0.1521 0.7628
vn -0.3872 -0.9208 0.0461
vn -0.5104 -0.8583 0.0526
vn -0.5181 -0.8538 -0.0517
vn 0.6357 -0.1560 0.7560
vn 0.7560 -0.1560 0.6357
vn 0.7628 0.1521 0.6285
vn 0.0461 -0.9208 0.3872
vn 0.0526 -0.8583 0.5104
vn -0.0517 -0.8538 0.5181
vn 0.7560 -0.1560 -0.6357
vn 0.6357 -0.1560 -0.7560
vn 0.6285 0.1521 -0.7628
vn 0.0526 -0.8583 -0.5104
vn 0.0461 -0.9208 -0.3872
vn -0.0472 -0.9236 -0.3805
vn 0.3872 -0.9208 -0.0461
vn 0.5104 -0.8583 -0.0526
vn 0.5181 -0.8538 0.0517
vn -0.3915 0.7830 -0.4833
vn -0.4082 0.8165 -0.4082
vn -0.3515 0.8677 -0.3515
vn -0.3515 0.8677 0.3515
vn -0.4082 0.8165 0.4082
vn -0.3915 0.7830 0.4833
vn 0.3515 0.8677 0.3515
vn 0.4082 0.8165 0.4082
vn 0.4833 0.7830 0.3915
vn 0.4833 0.7830 -0.3915
vn 0.4082 0.8165 -0.4082
vn 0.3515 0.8677 -0.3515
vn -0.4833 -0.7830 -0.3915
vn -0.4082 -0.8165 -0.4082
vn -0.3515 -0.8677 -0.3515
vn -0.3515 -0.8677 0.3515
vn -0.4082 -0.8165 0.4082
vn -0.4833 -0.7830 0.3915
vn 0.3515 -0.8677 0.3515
vn 0.4082 -0.8165 0.4082
vn 0.3915 -0.7830 0.4833
vn 0.3915 -0.7830 -0.4833
vn 0.4082 -0.8165 -0.4082
vn 0.3515 -0.8677 -0.3515
vn -0.0766 -0.1701 0.9824
vn 0.0766 -0.1701 0.9824
vn 0.0852 0.1536 0.9845
vn 0.0432 0.9983 0.0389
vn 0.0432 0.9983 -0.0389
vn -0.0389 0.9983 -0.0432
vn -0.9824 -0.1701 -0.0766
vn -0.9824 -0.1701 0.0766
vn -0.9845 0.1536 0.0852
vn -0.0389 -0.9983 -0.0432
vn 0.0389 -0.9983 -0.0432
vn 0.0432 -0.9983 0.0389
vn -0.0766 0.1701 -0.9824
vn 0.0766 0.1701 -0.9824
vn 0.0852 -0.1536 -0.9845
vn -0.0766 -0.1701 -0.9824
vn -0.0389 -0.9983 0.0432
vn -0.9824 0.1701 -0.0766
vn -0.0432 0.9983 0.0389
vn -0.0766 0.1701 0.9824
vn 0.3872 -0.9208 0.0461
vn -0.0526 -0.8583 -0.5104
vn 0.7560 0.1560 -0.6357
vn -0.0461 -0.9208 0.3872
vn 0.6357 0.1560 0.7560
vn -0.3872 -0.9208 -0.0461
vn -0.7560 0.1560 0.6357
vn -0.6357 0.1560 -0.7560
vn 0.5104 0.8583 0.0526
vn -0.0461 0.9208 -0.3872
vn -0.0526 0.8583 0.5104
vn -0.5104 0.8583 -0.0526
vn 0.9824 0.1701 0.0766
vn 0.9845 -0.1536 0.0852
vn 0.9845 -0.1536 -0.0852
vn 0.9824 0.1701 -0.0766
vn -0.5181 0.8538 0.0517
vn -0.3805 0.9236 0.0472
vn -0.3872 0.9208 -0.0461
vn 0.0517 0.8538 0.5181
vn 0.0472 0.9236 0.3805
vn -0.0461 0.9208 0.3872
vn 0.0472 0.9236 -0.3805
vn 0.0517 0.8538 -0.5181
vn -0.0526 0.8583 -0.5104
vn 0.5181 0.8538 -0.0517
vn 0.3805 0.9236 -0.0472
vn 0.3872 0.9208 0.0461
vn -0.6285 -0.1521 -0.7628
vn -0.7628 -0.1521 -0.6285
vn -0.7560 0.1560 -0.6357
vn -0.7628 -0.1521 0.6285
vn -0.6285 -0.1521 0.7628
vn -0.6357 0.1560 0.7560
vn -0.3805 -0.9236 0.0472
vn -0.5181 -0.8538 0.0517
vn -0.5104 -0.8583 -0.0526
vn 0.6285 -0.1521 0.7628
vn 0.7628 -0.1521 0.6285
vn 0.7560 0.1560 0.6357
vn 0.0472 -0.9236 0.3805
vn 0.0517 -0.8538 0.5181
vn -0.0526 -0.8583 0.5104
vn 0.7628 -0.1521 -0.6285
vn 0.6285 -0.1521 -0.7628
vn 0.6357 0.1560 -0.7560
vn 0.0517 -0.8538 -0.5181
vn 0.0472 -0.9236 -0.3805
vn -0.0461 -0.9208 -0.3872
vn 0.3805 -0.9236 -0.0472
vn 0.5181 -0.8538 -0.0517
vn 0.5104 -0.8583 0.0526
vn -0.0852 -0.1536 0.9845
vn 0.0852 -0.1536 0.9845
vn 0.0766 0.1701 0.9824
vn 0.0389 0.9983 0.0432
vn 0.0389 0.9983 -0.0432
vn -0.0432 0.9983 -0.0389
vn -0.9845 -0.1536 -0.0852
vn -0.9845 -0.1536 0.0852
vn -0.9824 0.1701 0.0766
vn -0.0432 -0.9983 -0.0389
vn 0.0432 -0.9983 -0.0389
vn 0.0389 -0.9983 0.0432
vn -0.0852 0.1536 -0.9845
vn 0.0852 0.1536 -0.9845
vn 0.0766 -0.1701 -0.9824
s off
f 90/1/1 10/2/1 64/3/1
f 89/4/2 9/5/2 60/6/2
f 88/7/3 22/8/3 63/9/3
f 87/10/4 21/11/4 69/12/4
f 86/13/5 20/14/5 61/15/5
f 1/16/6 26/17/6 25/18/6
f 4/19/7 29/20/7 28/21/7
f 7/22/8 32/23/8 31/24/8
f 10/25/9 35/26/9 34/27/9
f 13/28/10 38/29/10 37/30/10
f 16/31/11 41/32/11 40/33/11
f 19/34/12 44/35/12 43/36/12
f 22/37/13 47/38/13 46/39/13
f 28/40/14 50/41/14 85/42/14
f 84/43/15 10/44/15 52/45/15
f 83/46/16 15/47/16 54/48/16
f 31/49/17 56/50/17 82/51/17
f 81/52/18 16/53/18 58/54/18
f 36/55/19 60/56/19 80/57/19
f 79/58/20 19/59/20 62/60/20
f 78/61/21 24/62/21 64/63/21
f 77/64/22 17/65/22 66/66/22
f 48/67/23 68/68/23 76/69/23
f 75/70/24 20/71/24 70/72/24
f 74/73/25 22/74/25 72/75/25
f 73/76/26 17/77/26 57/78/26
f 73/76/27 4/79/27 49/80/27
f 1/81/28 73/76/28 49/80/28
f 15/82/29 73/76/29 54/83/29
f 74/73/30 19/84/30 43/85/30
f 71/86/31 43/85/31 21/87/31
f 71/86/32 47/88/32 74/73/32
f 75/70/33 16/89/33 40/90/33
f 69/91/34 40/90/34 18/92/34
f 69/91/35 45/93/35 75/70/35
f 38/94/36 68/68/36 14/95/36
f 13/96/37 76/69/37 38/94/37
f 24/97/38 76/69/38 67/98/38
f 77/64/39 15/99/39 39/100/39
f 65/101/40 39/100/40 14/102/40
f 65/101/41 42/103/41 77/64/41
f 78/61/42 10/104/42 34/105/42
f 12/106/43 78/61/43 34/105/43
f 22/107/44 78/61/44 63/108/44
f 79/58/45 8/109/45 32/110/45
f 7/111/46 79/58/46 32/110/46
f 20/112/47 79/58/47 61/113/47
f 33/114/48 60/56/48 9/115/48
f 8/116/49 80/57/49 33/114/49
f 12/117/50 80/57/50 59/118/50
f 81/52/51 5/119/51 29/120/51
f 4/121/52 81/52/52 29/120/52
f 17/122/53 81/52/53 57/123/53
f 30/124/54 56/50/54 6/125/54
f 5/126/55 82/51/55 30/124/55
f 7/127/56 82/51/56 55/128/56
f 83/46/57 1/129/57 25/130/57
f 3/131/58 83/46/58 25/130/58
f 13/132/59 83/46/59 53/133/59
f 84/43/60 3/134/60 27/135/60
f 51/136/61 27/135/61 2/137/61
f 51/136/62 35/138/62 84/43/62
f 26/139/63 50/41/63 2/140/63
f 1/141/64 85/42/64 26/139/64
f 4/142/65 85/42/65 49/143/65
f 46/39/66 48/144/66 24/145/66
f 46/39/67 47/38/67 48/144/67
f 47/38/68 23/146/68 48/144/68
f 43/36/69 45/147/69 21/148/69
f 43/36/70 44/35/70 45/147/70
f 44/35/71 20/149/71 45/147/71
f 40/33/72 42/150/72 18/151/72
f 40/33/73 41/32/73 42/150/73
f 41/32/74 17/152/74 42/150/74
f 37/30/75 39/153/75 15/154/75
f 37/30/76 38/29/76 39/153/76
f 38/29/77 14/155/77 39/153/77
f 34/27/78 36/156/78 12/157/78
f 34/27/79 35/26/79 36/156/79
f 35/26/80 11/158/80 36/156/80
f 31/24/81 33/159/81 9/160/81
f 31/24/82 32/23/82 33/159/82
f 32/23/83 8/161/83 33/159/83
f 28/21/84 30/162/84 6/163/84
f 28/21/85 29/20/85 30/162/85
f 29/20/86 5/164/86 30/162/86
f 25/18/87 27/165/87 3/166/87
f 25/18/88 26/17/88 27/165/88
f 26/17/89 2/167/89 27/165/89
f 86/13/90 7/168/90 55/169/90
f 5/170/91 86/13/91 55/169/91
f 16/171/92 86/13/92 58/172/92
f 87/10/93 18/173/93 65/174/93
f 14/175/94 87/10/94 65/174/94
f 23/176/95 87/10/95 68/177/95
f 88/7/96 12/178/96 59/179/96
f 8/180/97 88/7/97 59/179/97
f 19/181/98 88/7/98 62/182/98
f 89/4/99 11/183/99 51/184/99
f 2/185/100 89/4/100 51/184/100
f 6/186/101 89/4/101 50/187/101
f 90/1/102 24/188/102 67/189/102
f 13/190/103 90/1/103 67/189/103
f 3/191/104 90/1/104 53/192/104
f 90/1/105 52/193/105 10/2/105
f 89/4/106 56/194/106 9/5/106
f 88/7/107 72/195/107 22/8/107
f 87/10/108 71/196/108 21/11/108
f 86/13/109 70/197/109 20/14/109
f 28/40/110 6/198/110 50/41/110
f 84/43/111 35/138/111 10/44/111
f 83/46/112 37/199/112 15/47/112
f 31/49/113 9/200/113 56/50/113
f 81/52/114 41/201/114 16/53/114
f 36/55/115 11/202/115 60/56/115
f 79/58/116 44/203/116 19/59/116
f 78/61/117 46/204/117 24/62/117
f 77/64/118 42/103/118 17/65/118
f 48/67/119 23/205/119 68/68/119
f 75/70/120 45/93/120 20/71/120
f 74/73/121 47/88/121 22/74/121
f 73/76/122 66/206/122 17/77/122
f 73/76/123 57/78/123 4/79/123
f 1/81/124 54/83/124 73/76/124
f 15/82/125 66/206/125 73/76/125
f 74/73/126 72/75/126 19/84/126
f 71/86/127 74/73/127 43/85/127
f 71/86/128 23/207/128 47/88/128
f 75/70/129 70/72/129 16/89/129
f 69/91/130 75/70/130 40/90/130
f 69/91/131 21/208/131 45/93/131
f 38/94/132 76/69/132 68/68/132
f 13/96/133 67/98/133 76/69/133
f 24/97/134 48/67/134 76/69/134
f 77/64/135 66/66/135 15/99/135
f 65/101/136 77/64/136 39/100/136
f 65/101/137 18/209/137 42/103/137
f 78/61/138 64/63/138 10/104/138
f 12/106/139 63/108/139 78/61/139
f 22/107/140 46/204/140 78/61/140
f 79/58/141 62/60/141 8/109/141
f 7/111/142 61/113/142 79/58/142
f 20/112/143 44/203/143 79/58/143
f 33/114/144 80/57/144 60/56/144
f 8/116/145 59/118/145 80/57/145
f 12/117/146 36/55/146 80/57/146
f 81/52/147 58/54/147 5/119/147
f 4/121/148 57/123/148 81/52/148
f 17/122/149 41/201/149 81/52/149
f 30/124/150 82/51/150 56/50/150
f 5/126/151 55/128/151 82/51/151
f 7/127/152 31/49/152 82/51/152
f 83/46/153 54/48/153 1/129/153
f 3/131/154 53/133/154 83/46/154
f 13/132/155 37/199/155 83/46/155
f 84/43/156 52/45/156 3/134/156
f 51/136/157 84/43/157 27/135/157
f 51/136/158 11/210/158 35/138/158
f 26/139/159 85/42/159 50/41/159
f 1/141/160 49/143/160 85/42/160
f 4/142/161 28/40/161 85/42/161
f 86/13/162 61/15/162 7/168/162
f 5/170/163 58/172/163 86/13/163
f 16/171/164 70/197/164 86/13/164
f 87/10/165 69/12/165 18/173/165
f 14/175/166 68/177/166 87/10/166
f 23/176/167 71/196/167 87/10/167
f 88/7/168 63/9/168 12/178/168
f 8/180/169 62/182/169 88/7/169
f 19/181/170 72/195/170 88/7/170
f 89/4/171 60/6/171 11/183/171
f 2/185/172 50/187/172 89/4/172
f 6/186/173 56/194/173 89/4/173
f 90/1/174 64/3/174 24/188/174
f 13/190/175 53/192/175 90/1/175
f 3/191/176 52/193/176 90/1/176
